<svg xmlns="http://www.w3.org/2000/svg"
	 viewBox="0 0 512 512" >
		<path fill="#96b4c2" stroke="#96b4c2" stroke-width="1" stroke-linecap="round" stroke-linejoin="round" d="M492,38H20C8.954,38,0,46.954,0,58v306c0,11.046,8.954,20,20,20h178v50h-42c-11.046,0-20,8.954-20,20
			c0,11.046,8.954,20,20,20c24.407,0,179.793,0,200,0c11.046,0,20-8.954,20-20c0-11.046-8.954-20-20-20h-42v-50h178
			c11.046,0,20-8.954,20-20V58C512,46.954,503.046,38,492,38z M274,434h-36v-50h36V434z M472,344c-60.749,0-370.774,0-432,0V78h432
			V344z"/>
</svg>
